<svg xmlns="http://www.w3.org/2000/svg" viewBox="0 0 24 12" enable-background="new 0 0 24 12"><style type="text/css">.st0{fill:none;stroke:#101010;stroke-width:0.5;stroke-linecap:round;stroke-linejoin:round;stroke-miterlimit:10;} .st1{fill:none;stroke:#101010;stroke-width:0.52;stroke-linejoin:round;stroke-miterlimit:10;}</style><path class="st0" d="M4 .8v2.3M20 .8v2.3"/><path class="st1" d="M7.5 1.1l-3.5.7 3.5.7v-1.4zM.5 1.8v.7l3.5-.7-3.5-.7v.7zM23.5 1.1l-3.5.7 3.5.7v-1.4zM16.5 1.8v.7l3.5-.7-3.5-.7v.7zM20 5.3c-.3 0-.5-.2-.5-.5v-1c0-.3.2-.5.5-.5s.5.2.5.5v1c0 .2-.2.5-.5.5zM4 5.3c-.3 0-.5-.3-.5-.5v-1c0-.3.2-.5.5-.5s.5.2.5.5v1c0 .2-.2.5-.5.5zM18.7 5.4c-2.3.6-4.6.9-6.7.9-2.3 0-4.5-.3-6.7-.8-.2.4-.7.8-1.3.8-.2 0-.3 0-.5-.1 0 1.2.9 2.1 2.1 2.1h12.8c1.2 0 2.1-.9 2.1-2.1-.2.1-.3.1-.5.1-.6 0-1.1-.4-1.3-.9zM12 10.3c1.1 0 2-.9 2-2h-4c0 1.1.9 2 2 2z"/><path class="st0" d="M8.5 8.3l-3 3M18.5 11.3l-3-3M4.5 11.3h2.5M17.5 11.3h2.5"/></svg>