<?xml version="1.0" encoding="utf-8"?>
<!-- Generator: Adobe Illustrator 24.0.2, SVG Export Plug-In . SVG Version: 6.00 Build 0)  -->
<svg version="1.1" id="Слой_1" xmlns="http://www.w3.org/2000/svg" xmlns:xlink="http://www.w3.org/1999/xlink" x="0px" y="0px"
	 viewBox="0 0 191.2 176" style="enable-background:new 0 0 191.2 176;" xml:space="preserve">
<style type="text/css">
	.st0{fill:#FCD535;}
	.st1{fill:none;stroke:#101010;stroke-width:4;stroke-linecap:round;stroke-linejoin:round;stroke-miterlimit:10;}
	.st2{fill:#FFFFFF;stroke:#101010;stroke-width:4.16;stroke-linejoin:round;stroke-miterlimit:10;}
	.st3{fill:#2ED96F;stroke:#101010;stroke-width:4.16;stroke-linejoin:round;stroke-miterlimit:10;}
</style>
<path class="st0" d="M89.7,173.1L10.9,93.5c-3.1-3.1-3.1-8.2,0.1-11.3L90.6,3.4c3.1-3.1,8.2-3.1,11.3,0.1l78.8,79.6
	c3.1,3.1,3.1,8.2-0.1,11.3L101,173.2C97.9,176.3,92.8,176.3,89.7,173.1z"/>
<polyline class="st1" points="159.8,40.6 159.7,72.6 159.7,76.6 "/>
<polyline class="st1" points="31.9,40 31.7,72 31.7,76 "/>
<g>
	<path class="st2" d="M59.4,42.8L31.8,48l27.6,5.4c0.2-1.7,0.4-3.5,0.4-5.3C59.8,46.3,59.6,44.6,59.4,42.8z"/>
	<path class="st2" d="M3.8,47.8c0,1.8,0.2,3.5,0.4,5.3L31.8,48L4.2,42.6C4,44.3,3.8,46,3.8,47.8z"/>
</g>
<g>
	<path class="st2" d="M187.4,43.5l-27.6,5.1l27.6,5.4c0.2-1.7,0.4-3.5,0.4-5.3C187.8,47,187.6,45.2,187.4,43.5z"/>
	<path class="st2" d="M131.8,48.5c0,1.8,0.2,3.5,0.4,5.3l27.6-5.1l-27.6-5.4C132,45,131.8,46.7,131.8,48.5z"/>
</g>
<path class="st2" d="M159.7,76.6L159.7,76.6c-2.2,0-4-1.8-4-4l0-8c0-2.2,1.8-4,4-4h0c2.2,0,4,1.8,4,4l0,8
	C163.7,74.8,161.9,76.6,159.7,76.6z"/>
<path class="st2" d="M31.7,76L31.7,76c-2.2,0-4-1.8-4-4l0-8c0-2.2,1.8-4,4-4h0c2.2,0,4,1.8,4,4l0,8C35.7,74.2,33.9,76,31.7,76z"/>
<g>
	<path class="st3" d="M148.9,77.8c-18.3,4.4-36.4,6.6-53.3,6.5c-18.4-0.1-36.3-2.4-53.5-6.5c-2.1,3.7-6,6.2-10.5,6.2
		c-1.4,0-2.7-0.3-4-0.8v0c0,9.2,7.4,16.8,16.6,16.8l102.5,0.5c9.2,0,16.8-7.4,16.8-16.6v0c-1.3,0.4-2.6,0.7-4,0.7
		C154.9,84.6,150.8,81.8,148.9,77.8z"/>
</g>
<g>
	<path class="st2" d="M95.5,116.3c8.8,0,16-7.1,16.1-15.9l-32-0.2C79.5,109,86.6,116.2,95.5,116.3z"/>
</g>
<line class="st1" x1="67.5" y1="100.1" x2="43.4" y2="124"/>
<line class="st1" x1="147.4" y1="124.6" x2="123.5" y2="100.4"/>
<line class="st1" x1="35.4" y1="124" x2="55.4" y2="124.1"/>
<line class="st1" x1="139.4" y1="124.5" x2="159.4" y2="124.6"/>
</svg>
