<svg xmlns="http://www.w3.org/2000/svg" viewBox="0 0 191.2 176" enable-background="new 0 0 191.2 176"><style type="text/css">.st0{fill:#FCD535;} .st1{fill:none;stroke:#101010;stroke-width:4;stroke-linecap:round;stroke-linejoin:round;stroke-miterlimit:10;} .st2{fill:#FFFFFF;stroke:#101010;stroke-width:4.16;stroke-linejoin:round;stroke-miterlimit:10;} .st3{fill:#2ED96F;stroke:#101010;stroke-width:4.16;stroke-linejoin:round;stroke-miterlimit:10;}</style><path class="st0" d="M89.7 173.1l-78.8-79.6c-3.1-3.1-3.1-8.2.1-11.3l79.6-78.8c3.1-3.1 8.2-3.1 11.3.1l78.8 79.6c3.1 3.1 3.1 8.2-.1 11.3l-79.6 78.8c-3.1 3.1-8.2 3.1-11.3-.1z"/><path class="st1" d="M159.8 40.6l-.1 32v4M31.9 40l-.2 32v4"/><path class="st2" d="M59.4 42.8l-27.6 5.2 27.6 5.4c.2-1.7.4-3.5.4-5.3 0-1.8-.2-3.5-.4-5.3zM3.8 47.8c0 1.8.2 3.5.4 5.3l27.6-5.1-27.6-5.4c-.2 1.7-.4 3.4-.4 5.2zM187.4 43.5l-27.6 5.1 27.6 5.4c.2-1.7.4-3.5.4-5.3 0-1.7-.2-3.5-.4-5.2zM131.8 48.5c0 1.8.2 3.5.4 5.3l27.6-5.1-27.6-5.4c-.2 1.7-.4 3.4-.4 5.2zM159.7 76.6c-2.2 0-4-1.8-4-4v-8c0-2.2 1.8-4 4-4s4 1.8 4 4v8c0 2.2-1.8 4-4 4zM31.7 76c-2.2 0-4-1.8-4-4v-8c0-2.2 1.8-4 4-4s4 1.8 4 4v8c0 2.2-1.8 4-4 4z"/><path class="st3" d="M148.9 77.8c-18.3 4.4-36.4 6.6-53.3 6.5-18.4-.1-36.3-2.4-53.5-6.5-2.1 3.7-6 6.2-10.5 6.2-1.4 0-2.7-.3-4-.8 0 9.2 7.4 16.8 16.6 16.8l102.5.5c9.2 0 16.8-7.4 16.8-16.6-1.3.4-2.6.7-4 .7-4.6 0-8.7-2.8-10.6-6.8z"/><path class="st2" d="M95.5 116.3c8.8 0 16-7.1 16.1-15.9l-32-.2c-.1 8.8 7 16 15.9 16.1z"/><path class="st1" d="M67.5 100.1l-24.1 23.9M147.4 124.6l-23.9-24.2M35.4 124l20 .1M139.4 124.5l20 .1"/></svg>