<?xml version="1.0" encoding="utf-8"?>
<!-- Generator: Adobe Illustrator 24.0.2, SVG Export Plug-In . SVG Version: 6.00 Build 0)  -->
<svg version="1.1" id="Слой_1" xmlns="http://www.w3.org/2000/svg" xmlns:xlink="http://www.w3.org/1999/xlink" x="0px" y="0px"
	 viewBox="0 0 24 16" style="enable-background:new 0 0 24 16;" xml:space="preserve">
<style type="text/css">
	.st0{fill:#101010;}
	.st1{fill:none;stroke:#101010;stroke-width:0.5;stroke-linecap:round;stroke-linejoin:round;stroke-miterlimit:10;}
	.st2{fill:#FFFFFF;stroke:#101010;stroke-width:0.52;stroke-linejoin:round;stroke-miterlimit:10;}
	.st3{fill:#5A539E;stroke:#101010;stroke-width:0.5;stroke-linejoin:round;stroke-miterlimit:10;}
</style>
<g>
	<g>
		<path class="st0" d="M5.5,13.1c0.2,0,0.3,0,0.4,0.1c0.1,0,0.2,0.1,0.3,0.2c0.1,0.1,0.1,0.2,0.2,0.3s0.1,0.3,0.1,0.4
			c0,0.2,0,0.3,0,0.5c0,0.1,0,0.3-0.1,0.4s-0.1,0.2-0.2,0.3c-0.1,0.1-0.2,0.1-0.3,0.2c-0.1,0-0.3,0.1-0.4,0.1H4.7c0,0,0,0-0.1,0
			s0,0,0-0.1v-2.2c0,0,0,0,0-0.1s0,0,0.1,0H5.5z M6.1,14c0-0.1,0-0.1,0-0.2c0-0.1-0.1-0.1-0.1-0.2c0,0-0.1-0.1-0.2-0.1
			c-0.1,0-0.2,0-0.3,0H5.1v1.6h0.5c0.1,0,0.2,0,0.2,0S5.9,15,6,14.9c0,0,0.1-0.1,0.1-0.2c0-0.1,0-0.1,0-0.2
			C6.1,14.4,6.1,14.2,6.1,14z"/>
		<path class="st0" d="M7.9,14.1c-0.1,0-0.2,0-0.3,0.1s-0.1,0.2-0.1,0.3v0.9c0,0,0,0,0,0.1s0,0-0.1,0H7.1c0,0,0,0-0.1,0s0,0,0-0.1
			v-1.6c0,0,0,0,0-0.1s0,0,0.1,0h0.3c0,0,0,0,0.1,0s0,0,0,0.1v0.1c0.1-0.1,0.1-0.1,0.2-0.1s0.2,0,0.3,0h0.2c0,0,0,0,0.1,0s0,0,0,0.1
			V14c0,0,0,0,0,0.1s0,0-0.1,0H7.9z"/>
		<path class="st0" d="M9.2,13.7c0.1,0,0.2,0,0.3,0.1c0.1,0,0.2,0.1,0.3,0.2s0.1,0.2,0.2,0.2c0,0.1,0.1,0.2,0.1,0.3c0,0,0,0,0,0.1
			s0,0.1,0,0.1s0,0.1,0,0.1s0,0.1,0,0.1c0,0.1,0,0.2-0.1,0.3s-0.1,0.2-0.2,0.2s-0.2,0.1-0.3,0.2c-0.1,0-0.2,0.1-0.3,0.1
			c-0.1,0-0.2,0-0.3-0.1c-0.1,0-0.2-0.1-0.3-0.2c-0.1-0.1-0.1-0.1-0.2-0.2s-0.1-0.2-0.1-0.3c0,0,0,0,0-0.1s0-0.1,0-0.1s0-0.1,0-0.1
			s0-0.1,0-0.1c0-0.1,0-0.2,0.1-0.3c0-0.1,0.1-0.2,0.2-0.2c0.1-0.1,0.2-0.1,0.3-0.2C9,13.7,9.1,13.7,9.2,13.7z M9.7,14.5
			c0-0.1,0-0.1-0.1-0.2c0,0-0.1-0.1-0.1-0.1c0,0-0.1,0-0.1-0.1c0,0-0.1,0-0.1,0s-0.1,0-0.1,0c0,0-0.1,0-0.1,0.1c0,0-0.1,0.1-0.1,0.1
			c0,0,0,0.1-0.1,0.2c0,0,0,0,0,0.1c0,0,0,0.1,0,0.1c0,0,0,0.1,0,0.1s0,0.1,0,0.1c0,0.1,0,0.1,0.1,0.2c0,0,0.1,0.1,0.1,0.1
			c0,0,0.1,0,0.1,0.1c0,0,0.1,0,0.1,0s0.1,0,0.1,0c0,0,0.1,0,0.1-0.1c0,0,0.1-0.1,0.1-0.1s0-0.1,0.1-0.2c0,0,0,0,0-0.1s0-0.1,0-0.1
			C9.7,14.6,9.7,14.6,9.7,14.5C9.7,14.5,9.7,14.5,9.7,14.5z"/>
		<path class="st0" d="M12.2,15.4C12.2,15.5,12.2,15.5,12.2,15.4C12.2,15.5,12.1,15.5,12.2,15.4l-0.4,0.1c0,0,0,0-0.1,0s0,0,0-0.1
			v-0.9c0-0.1,0-0.3-0.1-0.3c-0.1-0.1-0.2-0.1-0.3-0.1c-0.1,0-0.2,0-0.3,0.1C11,14.3,11,14.4,11,14.5v0.9c0,0,0,0,0,0.1s0,0-0.1,0
			h-0.3c0,0,0,0-0.1,0s0,0,0-0.1v-1.6c0,0,0,0,0-0.1s0,0,0.1,0h0.3c0,0,0,0,0.1,0s0,0,0,0.1v0.1c0.1-0.1,0.1-0.1,0.2-0.1
			c0.1,0,0.2-0.1,0.3-0.1c0.1,0,0.3,0,0.4,0.1c0.1,0,0.2,0.1,0.2,0.2c0.1,0.1,0.1,0.2,0.1,0.3c0,0.1,0,0.2,0,0.3V15.4z"/>
		<path class="st0" d="M12.6,14.6c0-0.1,0-0.3,0.1-0.4c0-0.1,0.1-0.2,0.2-0.3c0.1-0.1,0.2-0.2,0.3-0.2s0.2-0.1,0.4-0.1
			s0.2,0,0.4,0.1s0.2,0.1,0.3,0.2s0.1,0.2,0.2,0.3c0,0.1,0.1,0.2,0.1,0.3v0.2c0,0,0,0,0,0.1s0,0-0.1,0H13c0,0.1,0,0.1,0,0.1
			c0,0,0.1,0.1,0.1,0.1c0,0,0.1,0,0.1,0.1s0.1,0,0.1,0c0.1,0,0.1,0,0.2,0c0,0,0.1,0,0.1-0.1c0,0,0,0,0.1,0s0,0,0.1,0h0.3
			c0,0,0,0,0.1,0s0,0,0,0.1c0,0,0,0.1-0.1,0.1c0,0.1-0.1,0.1-0.2,0.1c-0.1,0-0.2,0.1-0.2,0.1c-0.1,0-0.2,0.1-0.3,0.1s-0.2,0-0.4-0.1
			s-0.2-0.1-0.3-0.2c-0.1-0.1-0.1-0.2-0.2-0.3C12.6,14.9,12.6,14.8,12.6,14.6z M13.4,14.1c-0.1,0-0.1,0-0.2,0c0,0-0.1,0-0.1,0.1
			s-0.1,0.1-0.1,0.1s0,0.1,0,0.1h0.8c0,0,0-0.1,0-0.1s0-0.1-0.1-0.1c0,0-0.1-0.1-0.1-0.1C13.6,14.1,13.5,14.1,13.4,14.1z"/>
		<path class="st0" d="M15.6,15C15.6,15,15.6,15,15.6,15c0-0.1-0.1-0.1-0.1-0.1s-0.1,0-0.2,0c-0.1,0-0.2,0-0.3-0.1
			c-0.1,0-0.2-0.1-0.3-0.1c-0.1,0-0.1-0.1-0.2-0.1c0,0-0.1-0.1-0.1-0.2c0-0.1,0-0.1,0-0.2c0-0.1,0-0.1,0-0.2s0.1-0.1,0.1-0.2
			c0.1-0.1,0.1-0.1,0.2-0.1s0.2,0,0.3,0s0.2,0,0.3,0c0.1,0,0.2,0.1,0.2,0.1c0.1,0,0.1,0.1,0.1,0.1c0,0.1,0.1,0.1,0.1,0.2
			c0,0,0,0,0,0.1s0,0-0.1,0h-0.3c0,0-0.1,0-0.1,0s0,0-0.1,0c0,0,0,0-0.1,0s-0.1,0-0.2,0s-0.1,0-0.2,0c-0.1,0-0.1,0.1-0.1,0.1
			c0,0,0,0,0,0.1s0,0,0.1,0c0,0,0.1,0,0.1,0c0.1,0,0.1,0,0.2,0.1c0.2,0,0.4,0.1,0.4,0.2c0.1,0.1,0.1,0.2,0.1,0.3
			c0,0.1,0,0.1-0.1,0.2c0,0.1-0.1,0.1-0.2,0.2c-0.1,0.1-0.1,0.1-0.2,0.1c-0.1,0-0.2,0-0.3,0c-0.1,0-0.2,0-0.3,0s-0.2-0.1-0.2-0.1
			c-0.1,0-0.1-0.1-0.1-0.2c0-0.1-0.1-0.1-0.1-0.2c0,0,0,0,0-0.1c0,0,0,0,0.1,0h0.3c0,0,0.1,0,0.1,0c0,0,0,0,0.1,0.1
			c0,0,0.1,0,0.1,0.1c0,0,0.1,0,0.2,0c0,0,0.1,0,0.1,0c0,0,0.1,0,0.1,0S15.6,15.1,15.6,15C15.6,15,15.6,15,15.6,15z"/>
		<path class="st0" d="M18.7,14.7C18.7,14.7,18.8,14.7,18.7,14.7c0.1-0.1,0.1-0.1,0.1-0.1h0.3c0,0,0,0,0.1,0s0,0,0,0.1
			c0,0.1-0.1,0.2-0.1,0.3s-0.1,0.2-0.2,0.3c-0.1,0.1-0.2,0.1-0.3,0.2s-0.3,0.1-0.5,0.1c-0.2,0-0.3,0-0.4-0.1c-0.1,0-0.2-0.1-0.3-0.2
			c-0.1-0.1-0.1-0.2-0.2-0.3c0-0.1,0-0.2,0-0.4c0-0.1,0-0.2,0.1-0.3c0-0.1,0-0.2,0.1-0.3c0-0.1,0.1-0.3,0.2-0.4
			c0.1-0.1,0.1-0.2,0.2-0.3c0.1-0.1,0.2-0.2,0.3-0.2c0.1,0,0.3-0.1,0.4-0.1c0.2,0,0.3,0,0.4,0.1s0.2,0.1,0.3,0.2
			c0.1,0.1,0.1,0.2,0.2,0.3c0,0.1,0,0.2,0,0.3c0,0,0,0,0,0.1c0,0,0,0-0.1,0H19c0,0,0,0-0.1,0c0,0,0,0,0-0.1c0,0,0-0.1,0-0.1
			c0,0,0-0.1-0.1-0.1c0,0-0.1-0.1-0.1-0.1c-0.1,0-0.1,0-0.2,0c-0.1,0-0.2,0-0.2,0c-0.1,0-0.1,0.1-0.2,0.1s-0.1,0.1-0.1,0.2
			c0,0.1-0.1,0.1-0.1,0.2c0,0.1,0,0.2-0.1,0.3c0,0.1,0,0.2-0.1,0.3c0,0.1,0,0.1,0,0.2c0,0.1,0,0.1,0.1,0.2c0,0,0.1,0.1,0.1,0.1
			c0.1,0,0.1,0,0.2,0c0.1,0,0.2,0,0.2,0c0.1,0,0.1-0.1,0.2-0.1c0.1,0,0.1-0.1,0.1-0.1C18.7,14.8,18.7,14.8,18.7,14.7z"/>
	</g>
</g>
<polyline class="st1" points="20,0.5 20,4.5 20,5 "/>
<polyline class="st1" points="4,0.5 4,4.5 4,5 "/>
<g>
	<path class="st2" d="M7.5,0.9L4,1.5l3.5,0.7c0-0.2,0-0.4,0-0.7S7.5,1.1,7.5,0.9z"/>
	<path class="st2" d="M0.5,1.5c0,0.2,0,0.4,0,0.7L4,1.5L0.5,0.9C0.5,1.1,0.5,1.3,0.5,1.5z"/>
</g>
<g>
	<path class="st2" d="M23.5,0.9L20,1.5l3.5,0.7c0-0.2,0-0.4,0-0.7S23.5,1.1,23.5,0.9z"/>
	<path class="st2" d="M16.5,1.5c0,0.2,0,0.4,0,0.7L20,1.5l-3.5-0.7C16.5,1.1,16.5,1.3,16.5,1.5z"/>
</g>
<path class="st2" d="M20,5L20,5c-0.3,0-0.5-0.2-0.5-0.5v-1C19.5,3.3,19.7,3,20,3l0,0c0.3,0,0.5,0.2,0.5,0.5v1C20.5,4.8,20.3,5,20,5z
	"/>
<path class="st2" d="M4,5L4,5C3.7,5,3.5,4.8,3.5,4.5v-1C3.5,3.3,3.7,3,4,3h0c0.3,0,0.5,0.2,0.5,0.5v1C4.5,4.8,4.3,5,4,5z"/>
<g>
	<path class="st3" d="M18.7,5.2C16.4,5.7,14.1,6,12,6C9.7,6,7.5,5.8,5.3,5.2C5.1,5.7,4.6,6,4,6C3.8,6,3.7,6,3.5,5.9v0
		C3.5,7.1,4.4,8,5.6,8h12.8c1.2,0,2.1-0.9,2.1-2.1v0C20.3,6,20.2,6,20,6C19.4,6,18.9,5.7,18.7,5.2z"/>
</g>
<g>
	<path class="st2" d="M12,10c1.1,0,2-0.9,2-2h-4C10,9.1,10.9,10,12,10z"/>
</g>
<line class="st1" x1="8.5" y1="8" x2="5.5" y2="11"/>
<line class="st1" x1="18.5" y1="11" x2="15.5" y2="8"/>
<line class="st1" x1="4.5" y1="11" x2="7" y2="11"/>
<line class="st1" x1="17.5" y1="11" x2="20" y2="11"/>
</svg>
