<svg xmlns="http://www.w3.org/2000/svg" viewBox="0 0 24 16" enable-background="new 0 0 24 16"><style type="text/css">.st0{fill:#101010;} .st1{fill:none;stroke:#101010;stroke-width:0.5;stroke-linecap:round;stroke-linejoin:round;stroke-miterlimit:10;} .st2{fill:#FFFFFF;stroke:#101010;stroke-width:0.52;stroke-linejoin:round;stroke-miterlimit:10;} .st3{fill:#5A539E;stroke:#101010;stroke-width:0.5;stroke-linejoin:round;stroke-miterlimit:10;}</style><path class="st0" d="M5.5 13.1c.2 0 .3 0 .4.1.1 0 .2.1.3.2l.2.3s.1.3.1.4v.5c0 .1 0 .3-.1.4s-.1.2-.2.3l-.3.2-.4.1h-.9v-2.4000000000000004h.9zm.6.9v-.2l-.1-.2s-.1-.1-.2-.1h-.7v1.6h.7l.2-.2s.1-.1.1-.2v-.7zM7.9 14.1c-.1 0-.2 0-.3.1s-.1.2-.1.3v1h-.5v-1.8000000000000003h.5v.2c.1-.1.1-.1.2-.1h.6v.30000000000000004h-.4zM9.2 13.7c.1 0 .2 0 .3.1.1 0 .2.1.3.2s.1.2.2.2l.1.3v.4c0 .1 0 .2-.1.3s-.1.2-.2.2-.2.1-.3.2l-.3.1c-.1 0-.2 0-.3-.1-.1 0-.2-.1-.3-.2l-.2-.2s-.1-.2-.1-.3v-.4c0-.1 0-.2.1-.3 0-.1.1-.2.2-.2l.3-.2c.1-.1.2-.1.3-.1zm.5.8c0-.1 0-.1-.1-.2l-.1-.1s-.1 0-.1-.1h-.2s-.1 0-.1.1l-.1.1s0 .1-.1.2v.4c0 .1 0 .1.1.2l.1.1s.1 0 .1.1h.2s.1 0 .1-.1l.1-.1s0-.1.1-.2v-.4zM12.2 15.4c0 .1-.1.1 0 0l-.4.1h-.1v-1c0-.1 0-.3-.1-.3-.1-.1-.2-.1-.3-.1-.1 0-.2 0-.3.1v1.3h-.5v-1.8000000000000003h.5v.2c.1-.1.1-.1.2-.1l.3-.1c.1 0 .3 0 .4.1.1 0 .2.1.2.2.1.1.1.2.1.3v1.1zM12.6 14.6c0-.1 0-.3.1-.4 0-.1.1-.2.2-.3.1-.1.2-.2.3-.2s.2-.1.4-.1.2 0 .4.1.2.1.3.2.1.2.2.3l.1.3v.30000000000000004h-1.6v.1l.1.1s.1 0 .1.1h.30000000000000004s.1 0 .1-.1h.6v.1s0 .1-.1.1c0 .1-.1.1-.2.1s-.2.1-.2.1l-.3.1s-.2 0-.4-.1-.2-.1-.3-.2l-.2-.3c.1 0 .1-.1.1-.3zm.8-.5h-.2s-.1 0-.1.1l-.1.1v.1h.8v-.1s0-.1-.1-.1l-.1-.1h-.2zM15.6 15c0-.1-.1-.1-.1-.1h-.2c-.1 0-.2 0-.3-.1l-.3-.1-.2-.1s-.1-.1-.1-.2v-.4s.1-.1.1-.2c.1-.1.1-.1.2-.1h.6c.1 0 .2.1.2.1.1 0 .1.1.1.1l.1.2v.1h-1.0999999999999999c-.1 0-.1.1-.1.1v.1h.2c.1 0 .1 0 .2.1.2 0 .4.1.4.2.1.1.1.2.1.3 0 .1 0 .1-.1.2 0 .1-.1.1-.2.2s-.1.1-.2.1h-.6l-.2-.1c-.1 0-.1-.1-.1-.2l-.1-.2v-.1h.5l.1.1s.1 0 .1.1h.4s.6 0 .6-.1zM18.7 14.7l.1-.1h.4v.1l-.1.3s-.1.2-.2.3l-.3.2s-.3.1-.5.1-.3 0-.4-.1c-.1 0-.2-.1-.3-.2l-.2-.3v-.4c0-.1 0-.2.1-.3 0-.1 0-.2.1-.3 0-.1.1-.3.2-.4l.2-.3c.1-.1.2-.2.3-.2l.4-.1c.2 0 .3 0 .4.1s.2.1.3.2l.2.3v.4h-.5v-.2s0-.1-.1-.1l-.1-.1h-.4l-.2.1s-.1.1-.1.2l-.1.2c0 .1 0 .2-.1.3 0 .1 0 .2-.1.3v.2c0 .1 0 .1.1.2l.1.1h.4l.2-.1c.1 0 .1-.1.1-.1.1-.2.1-.2.1-.3z"/><path class="st1" d="M20 .5v4.5M4 .5v4.5"/><path class="st2" d="M7.5.9l-3.5.6 3.5.7v-1.2999999999999998zM.5 1.5v.7l3.5-.7-3.5-.6v.6zM23.5.9l-3.5.6 3.5.7v-1.2999999999999998zM16.5 1.5v.7l3.5-.7-3.5-.7v.7zM20 5c-.3 0-.5-.2-.5-.5v-1c0-.2.2-.5.5-.5s.5.2.5.5v1c0 .3-.2.5-.5.5zM4 5c-.3 0-.5-.2-.5-.5v-1c0-.2.2-.5.5-.5s.5.2.5.5v1c0 .3-.2.5-.5.5z"/><path class="st3" d="M18.7 5.2c-2.3.5-4.6.8-6.7.8-2.3 0-4.5-.2-6.7-.8-.2.5-.7.8-1.3.8-.2 0-.3 0-.5-.1 0 1.2.9 2.1 2.1 2.1h12.8c1.2 0 2.1-.9 2.1-2.1-.2.1-.3.1-.5.1-.6 0-1.1-.3-1.3-.8z"/><path class="st2" d="M12 10c1.1 0 2-.9 2-2h-4c0 1.1.9 2 2 2z"/><path class="st1" d="M8.5 8l-3 3M18.5 11l-3-3M4.5 11h2.5M17.5 11h2.5"/></svg>