<?xml version="1.0" encoding="utf-8"?>
<!-- Generator: Adobe Illustrator 24.0.2, SVG Export Plug-In . SVG Version: 6.00 Build 0)  -->
<svg version="1.1" id="Слой_1" xmlns="http://www.w3.org/2000/svg" xmlns:xlink="http://www.w3.org/1999/xlink" x="0px" y="0px"
	 viewBox="0 0 493.4 176" style="enable-background:new 0 0 493.4 176;" xml:space="preserve">
<style type="text/css">
	.st0{fill:#FCD535;}
	.st1{fill:none;stroke:#101010;stroke-width:4;stroke-linecap:round;stroke-linejoin:round;stroke-miterlimit:10;}
	.st2{fill:#FFFFFF;stroke:#101010;stroke-width:4.16;stroke-linejoin:round;stroke-miterlimit:10;}
	.st3{fill:#2ED96F;stroke:#101010;stroke-width:4.16;stroke-linejoin:round;stroke-miterlimit:10;}
</style>
<g>
	<path class="st0" d="M89.7,173.1L10.9,93.5c-3.1-3.1-3.1-8.2,0.1-11.3L90.6,3.4c3.1-3.1,8.2-3.1,11.3,0.1l78.8,79.6
		c3.1,3.1,3.1,8.2-0.1,11.3L101,173.2C97.9,176.3,92.8,176.3,89.7,173.1z"/>
	<polyline class="st1" points="159.8,40.6 159.7,72.6 159.7,76.6 	"/>
	<polyline class="st1" points="31.9,40 31.7,72 31.7,76 	"/>
	<g>
		<path class="st2" d="M59.4,42.8L31.8,48l27.6,5.4c0.2-1.7,0.4-3.5,0.4-5.3C59.8,46.3,59.6,44.6,59.4,42.8z"/>
		<path class="st2" d="M3.8,47.8c0,1.8,0.2,3.5,0.4,5.3L31.8,48L4.2,42.6C4,44.3,3.8,46,3.8,47.8z"/>
	</g>
	<g>
		<path class="st2" d="M187.4,43.5l-27.6,5.1l27.6,5.4c0.2-1.7,0.4-3.5,0.4-5.3C187.8,47,187.6,45.2,187.4,43.5z"/>
		<path class="st2" d="M131.8,48.5c0,1.8,0.2,3.5,0.4,5.3l27.6-5.1l-27.6-5.4C132,45,131.8,46.7,131.8,48.5z"/>
	</g>
	<path class="st2" d="M159.7,76.6L159.7,76.6c-2.2,0-4-1.8-4-4l0-8c0-2.2,1.8-4,4-4h0c2.2,0,4,1.8,4,4l0,8
		C163.7,74.8,161.9,76.6,159.7,76.6z"/>
	<path class="st2" d="M31.7,76L31.7,76c-2.2,0-4-1.8-4-4l0-8c0-2.2,1.8-4,4-4h0c2.2,0,4,1.8,4,4l0,8C35.7,74.2,33.9,76,31.7,76z"/>
	<g>
		<path class="st3" d="M148.9,77.8c-18.3,4.4-36.4,6.6-53.3,6.5c-18.4-0.1-36.3-2.4-53.5-6.5c-2.1,3.7-6,6.2-10.5,6.2
			c-1.4,0-2.7-0.3-4-0.8v0c0,9.2,7.4,16.8,16.6,16.8l102.5,0.5c9.2,0,16.8-7.4,16.8-16.6v0c-1.3,0.4-2.6,0.7-4,0.7
			C154.9,84.6,150.8,81.8,148.9,77.8z"/>
	</g>
	<g>
		<path class="st2" d="M95.5,116.3c8.8,0,16-7.1,16.1-15.9l-32-0.2C79.5,109,86.6,116.2,95.5,116.3z"/>
	</g>
	<line class="st1" x1="67.5" y1="100.1" x2="43.4" y2="124"/>
	<line class="st1" x1="147.4" y1="124.6" x2="123.5" y2="100.4"/>
	<line class="st1" x1="35.4" y1="124" x2="55.4" y2="124.1"/>
	<line class="st1" x1="139.4" y1="124.5" x2="159.4" y2="124.6"/>
	<g>
		<path d="M238.8,65.8c3.2,0,5.9,0.4,8.2,1.3c2.3,0.8,4.3,2,5.8,3.6c1.6,1.5,2.8,3.4,3.6,5.6c0.8,2.2,1.3,4.6,1.5,7.3
			c0.2,3.2,0.2,6.3,0,9.5c-0.2,2.7-0.7,5.1-1.5,7.3c-0.8,2.2-2,4-3.6,5.6s-3.5,2.7-5.7,3.6c-2.3,0.8-5,1.3-8.1,1.3h-16.2
			c-0.5,0-0.9-0.2-1.2-0.5c-0.3-0.3-0.5-0.7-0.5-1.2V67.6c0-0.5,0.2-0.9,0.5-1.2c0.3-0.3,0.7-0.5,1.2-0.5H238.8z M249.3,83.5
			c-0.1-1.4-0.4-2.6-0.8-3.8c-0.4-1.2-1.1-2.2-2-3.1c-0.9-0.9-2-1.6-3.3-2.1c-1.3-0.5-2.9-0.7-4.8-0.7h-8.6v28.9h8.9
			c1.8,0,3.3-0.2,4.6-0.7c1.3-0.5,2.4-1.2,3.2-2c0.9-0.9,1.5-1.9,2-3.1c0.4-1.2,0.7-2.5,0.8-3.9C249.5,89.9,249.5,86.7,249.3,83.5z"
			/>
		<path d="M281.4,85.1c-2.6,0-4.4,0.6-5.6,1.7c-1.1,1.1-1.7,3-1.7,5.6V109c0,0.5-0.2,0.9-0.5,1.2c-0.3,0.3-0.8,0.5-1.2,0.5h-4.9
			c-0.5,0-0.9-0.2-1.2-0.5c-0.3-0.3-0.5-0.7-0.5-1.2V79.1c0-0.5,0.2-0.9,0.5-1.2c0.3-0.3,0.7-0.5,1.2-0.5h4.9c0.5,0,0.9,0.2,1.2,0.5
			c0.3,0.3,0.5,0.7,0.5,1.2v1.5c1.1-1,2.3-1.8,3.6-2.4c1.3-0.6,2.9-0.8,5-0.8h2.9c0.5,0,0.9,0.2,1.2,0.5c0.3,0.3,0.5,0.7,0.5,1.2
			v4.2c0,0.5-0.2,0.9-0.5,1.2c-0.3,0.3-0.7,0.5-1.2,0.5H281.4z"/>
		<path d="M306.8,76.7c2.4,0,4.5,0.4,6.4,1.1c1.9,0.7,3.6,1.7,4.9,3c1.4,1.3,2.5,2.8,3.3,4.5c0.8,1.7,1.3,3.6,1.4,5.5
			c0,0.4,0.1,0.9,0.1,1.5s0,1.2,0,1.8s0,1.2,0,1.8c0,0.6,0,1.1-0.1,1.4c-0.2,2-0.7,3.8-1.5,5.5c-0.8,1.7-1.9,3.2-3.3,4.5
			c-1.4,1.3-3,2.3-4.9,3c-1.9,0.7-4,1.1-6.4,1.1c-2.4,0-4.5-0.4-6.4-1.1c-1.9-0.7-3.6-1.7-4.9-3c-1.4-1.3-2.5-2.7-3.3-4.5
			c-0.8-1.7-1.3-3.6-1.5-5.5c0-0.4-0.1-0.9-0.1-1.4c0-0.6,0-1.2,0-1.8s0-1.2,0-1.8c0-0.6,0.1-1.1,0.1-1.5c0.1-2,0.6-3.8,1.4-5.5
			c0.8-1.7,1.9-3.2,3.3-4.5c1.4-1.3,3-2.3,4.9-3C302.4,77.1,304.5,76.7,306.8,76.7z M314.6,91.2c-0.1-1.3-0.4-2.4-0.9-3.3
			c-0.5-0.9-1.1-1.6-1.8-2.1c-0.7-0.5-1.5-0.9-2.4-1.1c-0.9-0.2-1.7-0.3-2.6-0.3c-0.9,0-1.8,0.1-2.6,0.3c-0.9,0.2-1.6,0.5-2.4,1.1
			c-0.7,0.5-1.3,1.2-1.8,2.1c-0.5,0.9-0.8,2-0.9,3.3c0,0.3-0.1,0.8-0.1,1.3c0,0.5,0,1.1,0,1.6c0,0.6,0,1.1,0,1.6
			c0,0.5,0.1,1,0.1,1.3c0.1,1.3,0.4,2.4,0.9,3.3c0.5,0.9,1.1,1.6,1.8,2.1c0.7,0.5,1.5,0.9,2.4,1.1c0.9,0.2,1.7,0.3,2.6,0.3
			c0.9,0,1.8-0.1,2.6-0.3c0.9-0.2,1.6-0.5,2.4-1.1c0.7-0.5,1.3-1.2,1.8-2.1c0.5-0.9,0.8-2,0.9-3.3c0-0.3,0.1-0.7,0.1-1.3
			c0-0.5,0-1.1,0-1.6c0-0.6,0-1.1,0-1.6C314.7,92,314.6,91.5,314.6,91.2z"/>
		<path d="M361.7,109c0,0.5-0.2,0.9-0.5,1.2c-0.3,0.3-0.8,0.5-1.2,0.5h-4.9c-0.5,0-0.9-0.2-1.2-0.5c-0.3-0.3-0.5-0.7-0.5-1.2V92.7
			c0-2.6-0.6-4.6-1.8-6.2c-1.2-1.5-3-2.3-5.5-2.3c-2.3,0-4.1,0.8-5.4,2.3c-1.3,1.5-2,3.6-2,6.2V109c0,0.5-0.2,0.9-0.5,1.2
			c-0.3,0.3-0.8,0.5-1.2,0.5h-4.9c-0.5,0-0.9-0.2-1.2-0.5c-0.3-0.3-0.5-0.7-0.5-1.2V79.1c0-0.5,0.2-0.9,0.5-1.2
			c0.3-0.3,0.7-0.5,1.2-0.5h4.9c0.5,0,0.9,0.2,1.2,0.5c0.3,0.3,0.5,0.7,0.5,1.2v1.5c1.1-1.1,2.4-2,3.9-2.8c1.5-0.7,3.3-1.1,5.3-1.1
			c2.6,0,4.8,0.4,6.5,1.2c1.8,0.8,3.2,1.9,4.2,3.3c1.1,1.4,1.8,3,2.3,4.8c0.5,1.8,0.7,3.7,0.7,5.7V109z"/>
		<path d="M368.5,94.1c0-2.4,0.4-4.7,1.1-6.8c0.7-2.1,1.8-4,3.1-5.5c1.4-1.6,3-2.8,5-3.7c1.9-0.9,4.1-1.3,6.5-1.3
			c2.4,0,4.6,0.4,6.5,1.3c1.9,0.9,3.6,2.1,5,3.5c1.4,1.5,2.4,3.2,3.2,5.2c0.7,2,1.1,4.1,1.1,6.3v2.9c0,0.5-0.2,0.9-0.5,1.2
			c-0.3,0.3-0.7,0.5-1.2,0.5h-21.4c0,1,0.2,1.9,0.6,2.6c0.4,0.7,1,1.4,1.6,1.9c0.7,0.5,1.5,0.9,2.4,1.2c0.9,0.3,1.8,0.4,2.8,0.4
			c1.4,0,2.5-0.1,3.3-0.4c0.9-0.3,1.6-0.6,2.1-1.1c0.5-0.3,0.9-0.6,1.2-0.7c0.3-0.1,0.7-0.2,1.2-0.2h5.1c0.5,0,0.9,0.2,1.3,0.5
			c0.4,0.3,0.5,0.8,0.5,1.2c0,0.6-0.4,1.4-1,2.3c-0.6,0.9-1.6,1.9-2.8,2.8c-1.2,0.9-2.8,1.7-4.6,2.3c-1.8,0.6-3.9,1-6.3,1
			c-2.4,0-4.6-0.4-6.5-1.3c-1.9-0.8-3.6-2-5-3.6c-1.4-1.5-2.4-3.4-3.1-5.5C368.9,99,368.5,96.6,368.5,94.1z M384.3,84.4
			c-1.2,0-2.3,0.2-3.2,0.5c-0.9,0.4-1.6,0.8-2.2,1.4c-0.6,0.6-1.1,1.2-1.4,1.9c-0.3,0.7-0.5,1.4-0.6,2h14.5c-0.1-0.6-0.2-1.3-0.5-2
			c-0.2-0.7-0.6-1.3-1.2-1.9c-0.5-0.6-1.2-1-2.1-1.4C386.8,84.6,385.6,84.4,384.3,84.4z"/>
		<path d="M425.2,101.2c0-0.5-0.2-0.9-0.5-1.2c-0.3-0.3-0.8-0.6-1.6-0.8c-0.7-0.3-1.7-0.5-3-0.8c-1.2-0.3-2.8-0.6-4.8-1
			c-1.9-0.4-3.4-1-4.7-1.6c-1.2-0.6-2.2-1.4-3-2.2c-0.7-0.9-1.3-1.8-1.6-2.9c-0.3-1.1-0.4-2.3-0.4-3.6c0-1.3,0.3-2.5,0.9-3.8
			c0.6-1.2,1.5-2.3,2.6-3.3c1.1-1,2.5-1.7,4.1-2.3c1.6-0.6,3.5-0.9,5.6-0.9c2.1,0,4,0.2,5.6,0.7c1.6,0.5,3,1.1,4.2,1.9
			s2.1,1.7,2.7,2.7c0.6,1,1,2,1.1,3c0,0.5-0.1,0.9-0.5,1.2c-0.4,0.3-0.8,0.5-1.3,0.5h-4.9c-0.6,0-1.1-0.1-1.4-0.4
			c-0.3-0.2-0.7-0.5-1.1-0.8c-0.4-0.3-0.9-0.6-1.5-0.8c-0.6-0.2-1.6-0.4-2.9-0.4c-1.3,0-2.4,0.2-3.4,0.6c-1,0.4-1.5,1.1-1.5,2.1
			c0,0.5,0.1,0.9,0.4,1.2c0.2,0.3,0.7,0.6,1.3,0.9c0.7,0.3,1.6,0.5,2.8,0.8s2.7,0.6,4.6,1c3.8,0.8,6.5,2.1,8.1,3.8
			c1.6,1.7,2.3,3.9,2.3,6.5c0,1.3-0.3,2.5-1,3.8c-0.6,1.2-1.6,2.3-2.8,3.3c-1.2,1-2.7,1.7-4.5,2.3c-1.8,0.6-3.8,0.9-6,0.9
			c-2.3,0-4.3-0.3-6-0.8c-1.7-0.5-3.2-1.2-4.4-2.1c-1.2-0.9-2.1-1.8-2.8-2.9c-0.6-1.1-1-2.1-1-3.1c0-0.5,0.1-0.9,0.5-1.2
			c0.4-0.3,0.8-0.5,1.3-0.5h4.9c0.6,0,1.1,0.2,1.4,0.4c0.3,0.3,0.7,0.6,1.1,1c0.4,0.4,1,0.7,1.7,1c0.7,0.3,1.8,0.4,3.3,0.4
			c0.6,0,1.3,0,2-0.1c0.7-0.1,1.3-0.2,1.9-0.4c0.6-0.2,1.1-0.5,1.4-0.8C425,102.1,425.2,101.7,425.2,101.2z"/>
		<path d="M483.3,96.5c0.1-0.6,0.3-1,0.7-1.3c0.4-0.3,0.8-0.4,1.2-0.4h5.2c0.5,0,0.9,0.2,1.3,0.5c0.4,0.3,0.5,0.7,0.5,1.3
			c-0.1,1.8-0.6,3.5-1.3,5.3c-0.7,1.8-1.9,3.3-3.4,4.8c-1.5,1.4-3.5,2.6-5.8,3.5c-2.4,0.9-5.2,1.3-8.5,1.3c-3,0-5.6-0.4-7.8-1.3
			c-2.3-0.9-4.2-2.1-5.8-3.7c-1.6-1.6-2.8-3.4-3.7-5.6c-0.9-2.2-1.4-4.6-1.6-7.1c-0.1-1.6-0.1-3.4-0.1-5.4s0-3.8,0.1-5.4
			c0.2-2.6,0.7-4.9,1.6-7.1c0.9-2.2,2.1-4.1,3.7-5.6c1.6-1.6,3.5-2.8,5.8-3.7c2.3-0.9,4.9-1.3,7.8-1.3c3.3,0,6.2,0.5,8.5,1.3
			c2.4,0.9,4.3,2.1,5.8,3.5c1.5,1.4,2.7,3,3.4,4.8c0.7,1.8,1.2,3.5,1.3,5.2c0,0.5-0.1,0.9-0.5,1.3c-0.4,0.3-0.8,0.5-1.3,0.5h-5.2
			c-0.4,0-0.8-0.1-1.2-0.4c-0.4-0.3-0.6-0.7-0.7-1.3c-0.1-0.9-0.4-1.7-0.9-2.5c-0.5-0.8-1.1-1.5-1.9-2.2c-0.8-0.6-1.8-1.2-3.1-1.6
			c-1.2-0.4-2.7-0.6-4.4-0.6c-1.7,0-3.1,0.3-4.4,0.8c-1.2,0.5-2.3,1.2-3.1,2.1c-0.8,0.9-1.5,1.9-1.9,3.1c-0.4,1.2-0.7,2.5-0.8,3.8
			c-0.1,1.6-0.1,3.4-0.1,5.4s0,3.8,0.1,5.4c0.1,1.4,0.4,2.6,0.8,3.8c0.5,1.2,1.1,2.2,1.9,3c0.8,0.9,1.9,1.5,3.1,2.1
			c1.2,0.5,2.7,0.8,4.4,0.8c1.7,0,3.1-0.2,4.4-0.6c1.2-0.4,2.3-0.9,3.1-1.6s1.5-1.4,2-2.2C482.8,98.2,483.1,97.4,483.3,96.5z"/>
	</g>
</g>
</svg>
