<svg xmlns="http://www.w3.org/2000/svg" viewBox="0 0 493.4 176" enable-background="new 0 0 493.4 176"><style type="text/css">.st0{fill:#FCD535;} .st1{fill:none;stroke:#101010;stroke-width:4;stroke-linecap:round;stroke-linejoin:round;stroke-miterlimit:10;} .st2{fill:#FFFFFF;stroke:#101010;stroke-width:4.16;stroke-linejoin:round;stroke-miterlimit:10;} .st3{fill:#2ED96F;stroke:#101010;stroke-width:4.16;stroke-linejoin:round;stroke-miterlimit:10;}</style><path class="st0" d="M89.7 173.1l-78.8-79.6c-3.1-3.1-3.1-8.2.1-11.3l79.6-78.8c3.1-3.1 8.2-3.1 11.3.1l78.8 79.6c3.1 3.1 3.1 8.2-.1 11.3l-79.6 78.8c-3.1 3.1-8.2 3.1-11.3-.1z"/><path class="st1" d="M159.8 40.6l-.1 32v4M31.9 40l-.2 32v4"/><path class="st2" d="M59.4 42.8l-27.6 5.2 27.6 5.4c.2-1.7.4-3.5.4-5.3 0-1.8-.2-3.5-.4-5.3zM3.8 47.8c0 1.8.2 3.5.4 5.3l27.6-5.1-27.6-5.4c-.2 1.7-.4 3.4-.4 5.2zM187.4 43.5l-27.6 5.1 27.6 5.4c.2-1.7.4-3.5.4-5.3 0-1.7-.2-3.5-.4-5.2zM131.8 48.5c0 1.8.2 3.5.4 5.3l27.6-5.1-27.6-5.4c-.2 1.7-.4 3.4-.4 5.2zM159.7 76.6c-2.2 0-4-1.8-4-4v-8c0-2.2 1.8-4 4-4s4 1.8 4 4v8c0 2.2-1.8 4-4 4zM31.7 76c-2.2 0-4-1.8-4-4v-8c0-2.2 1.8-4 4-4s4 1.8 4 4v8c0 2.2-1.8 4-4 4z"/><path class="st3" d="M148.9 77.8c-18.3 4.4-36.4 6.6-53.3 6.5-18.4-.1-36.3-2.4-53.5-6.5-2.1 3.7-6 6.2-10.5 6.2-1.4 0-2.7-.3-4-.8 0 9.2 7.4 16.8 16.6 16.8l102.5.5c9.2 0 16.8-7.4 16.8-16.6-1.3.4-2.6.7-4 .7-4.6 0-8.7-2.8-10.6-6.8z"/><path class="st2" d="M95.5 116.3c8.8 0 16-7.1 16.1-15.9l-32-.2c-.1 8.8 7 16 15.9 16.1z"/><path class="st1" d="M67.5 100.1l-24.1 23.9M147.4 124.6l-23.9-24.2M35.4 124l20 .1M139.4 124.5l20 .1"/><path d="M238.8 65.8c3.2 0 5.9.4 8.2 1.3 2.3.8 4.3 2 5.8 3.6 1.6 1.5 2.8 3.4 3.6 5.6.8 2.2 1.3 4.6 1.5 7.3.2 3.2.2 6.3 0 9.5-.2 2.7-.7 5.1-1.5 7.3s-2 4-3.6 5.6-3.5 2.7-5.7 3.6c-2.3.8-5 1.3-8.1 1.3h-16.2c-.5 0-.9-.2-1.2-.5-.3-.3-.5-.7-.5-1.2v-41.6c0-.5.2-.9.5-1.2.3-.3.7-.5 1.2-.5h16zm10.5 17.7c-.1-1.4-.4-2.6-.8-3.8-.4-1.2-1.1-2.2-2-3.1-.9-.9-2-1.6-3.3-2.1-1.3-.5-2.9-.7-4.8-.7h-8.6v28.9h8.9c1.8 0 3.3-.2 4.6-.7 1.3-.5 2.4-1.2 3.2-2 .9-.9 1.5-1.9 2-3.1.4-1.2.7-2.5.8-3.9.2-3.1.2-6.3 0-9.5zM281.4 85.1c-2.6 0-4.4.6-5.6 1.7-1.1 1.1-1.7 3-1.7 5.6v16.6c0 .5-.2.9-.5 1.2-.3.3-.8.5-1.2.5h-4.9c-.5 0-.9-.2-1.2-.5-.3-.3-.5-.7-.5-1.2v-29.9c0-.5.2-.9.5-1.2.3-.3.7-.5 1.2-.5h4.9c.5 0 .9.2 1.2.5.3.3.5.7.5 1.2v1.5c1.1-1 2.3-1.8 3.6-2.4 1.3-.6 2.9-.8 5-.8h2.9c.5 0 .9.2 1.2.5.3.3.5.7.5 1.2v4.2c0 .5-.2.9-.5 1.2-.3.3-.7.5-1.2.5h-4.2zM306.8 76.7c2.4 0 4.5.4 6.4 1.1 1.9.7 3.6 1.7 4.9 3 1.4 1.3 2.5 2.8 3.3 4.5.8 1.7 1.3 3.6 1.4 5.5 0 .4.1.9.1 1.5v3.6c0 .6 0 1.1-.1 1.4-.2 2-.7 3.8-1.5 5.5-.8 1.7-1.9 3.2-3.3 4.5-1.4 1.3-3 2.3-4.9 3-1.9.7-4 1.1-6.4 1.1-2.4 0-4.5-.4-6.4-1.1-1.9-.7-3.6-1.7-4.9-3-1.4-1.3-2.5-2.7-3.3-4.5-.8-1.7-1.3-3.6-1.5-5.5 0-.4-.1-.9-.1-1.4v-3.6c0-.6.1-1.1.1-1.5.1-2 .6-3.8 1.4-5.5.8-1.7 1.9-3.2 3.3-4.5 1.4-1.3 3-2.3 4.9-3 2.2-.7 4.3-1.1 6.6-1.1zm7.8 14.5c-.1-1.3-.4-2.4-.9-3.3-.5-.9-1.1-1.6-1.8-2.1s-1.5-.9-2.4-1.1c-.9-.2-1.7-.3-2.6-.3-.9 0-1.8.1-2.6.3-.9.2-1.6.5-2.4 1.1-.7.5-1.3 1.2-1.8 2.1-.5.9-.8 2-.9 3.3 0 .3-.1.8-.1 1.3v3.2c0 .5.1 1 .1 1.3.1 1.3.4 2.4.9 3.3.5.9 1.1 1.6 1.8 2.1s1.5.9 2.4 1.1c.9.2 1.7.3 2.6.3.9 0 1.8-.1 2.6-.3.9-.2 1.6-.5 2.4-1.1.7-.5 1.3-1.2 1.8-2.1.5-.9.8-2 .9-3.3 0-.3.1-.7.1-1.3v-3.2c0-.5-.1-1-.1-1.3zM361.7 109c0 .5-.2.9-.5 1.2-.3.3-.8.5-1.2.5h-4.9c-.5 0-.9-.2-1.2-.5-.3-.3-.5-.7-.5-1.2v-16.3c0-2.6-.6-4.6-1.8-6.2-1.2-1.5-3-2.3-5.5-2.3-2.3 0-4.1.8-5.4 2.3-1.3 1.5-2 3.6-2 6.2v16.3c0 .5-.2.9-.5 1.2-.3.3-.8.5-1.2.5h-4.9c-.5 0-.9-.2-1.2-.5-.3-.3-.5-.7-.5-1.2v-29.9c0-.5.2-.9.5-1.2.3-.3.7-.5 1.2-.5h4.9c.5 0 .9.2 1.2.5.3.3.5.7.5 1.2v1.5c1.1-1.1 2.4-2 3.9-2.8 1.5-.7 3.3-1.1 5.3-1.1 2.6 0 4.8.4 6.5 1.2 1.8.8 3.2 1.9 4.2 3.3 1.1 1.4 1.8 3 2.3 4.8.5 1.8.7 3.7.7 5.7v17.3zM368.5 94.1c0-2.4.4-4.7 1.1-6.8.7-2.1 1.8-4 3.1-5.5 1.4-1.6 3-2.8 5-3.7 1.9-.9 4.1-1.3 6.5-1.3 2.4 0 4.6.4 6.5 1.3 1.9.9 3.6 2.1 5 3.5 1.4 1.5 2.4 3.2 3.2 5.2.7 2 1.1 4.1 1.1 6.3v2.9c0 .5-.2.9-.5 1.2-.3.3-.7.5-1.2.5h-21.4c0 1 .2 1.9.6 2.6.4.7 1 1.4 1.6 1.9.7.5 1.5.9 2.4 1.2.9.3 1.8.4 2.8.4 1.4 0 2.5-.1 3.3-.4.9-.3 1.6-.6 2.1-1.1.5-.3.9-.6 1.2-.7.3-.1.7-.2 1.2-.2h5.1c.5 0 .9.2 1.3.5s.5.8.5 1.2c0 .6-.4 1.4-1 2.3-.6.9-1.6 1.9-2.8 2.8-1.2.9-2.8 1.7-4.6 2.3-1.8.6-3.9 1-6.3 1s-4.6-.4-6.5-1.3c-1.9-.8-3.6-2-5-3.6-1.4-1.5-2.4-3.4-3.1-5.5-.8-2.1-1.2-4.5-1.2-7zm15.8-9.7c-1.2 0-2.3.2-3.2.5-.9.4-1.6.8-2.2 1.4-.6.6-1.1 1.2-1.4 1.9-.3.7-.5 1.4-.6 2h14.5c-.1-.6-.2-1.3-.5-2-.2-.7-.6-1.3-1.2-1.9-.5-.6-1.2-1-2.1-1.4-.8-.3-2-.5-3.3-.5zM425.2 101.2c0-.5-.2-.9-.5-1.2-.3-.3-.8-.6-1.6-.8-.7-.3-1.7-.5-3-.8-1.2-.3-2.8-.6-4.8-1-1.9-.4-3.4-1-4.7-1.6-1.2-.6-2.2-1.4-3-2.2-.7-.9-1.3-1.8-1.6-2.9-.3-1.1-.4-2.3-.4-3.6 0-1.3.3-2.5.9-3.8.6-1.2 1.5-2.3 2.6-3.3s2.5-1.7 4.1-2.3c1.6-.6 3.5-.9 5.6-.9 2.1 0 4 .2 5.6.7 1.6.5 3 1.1 4.2 1.9s2.1 1.7 2.7 2.7c.6 1 1 2 1.1 3 0 .5-.1.9-.5 1.2-.4.3-.8.5-1.3.5h-4.9c-.6 0-1.1-.1-1.4-.4-.3-.2-.7-.5-1.1-.8-.4-.3-.9-.6-1.5-.8-.6-.2-1.6-.4-2.9-.4-1.3 0-2.4.2-3.4.6-1 .4-1.5 1.1-1.5 2.1 0 .5.1.9.4 1.2.2.3.7.6 1.3.9.7.3 1.6.5 2.8.8s2.7.6 4.6 1c3.8.8 6.5 2.1 8.1 3.8 1.6 1.7 2.3 3.9 2.3 6.5 0 1.3-.3 2.5-1 3.8-.6 1.2-1.6 2.3-2.8 3.3-1.2 1-2.7 1.7-4.5 2.3-1.8.6-3.8.9-6 .9-2.3 0-4.3-.3-6-.8-1.7-.5-3.2-1.2-4.4-2.1-1.2-.9-2.1-1.8-2.8-2.9-.6-1.1-1-2.1-1-3.1 0-.5.1-.9.5-1.2.4-.3.8-.5 1.3-.5h4.9c.6 0 1.1.2 1.4.4.3.3.7.6 1.1 1 .4.4 1 .7 1.7 1 .7.3 1.8.4 3.3.4.6 0 1.3 0 2-.1s1.3-.2 1.9-.4c.6-.2 1.1-.5 1.4-.8.6-.4.8-.8.8-1.3zM483.3 96.5c.1-.6.3-1 .7-1.3.4-.3.8-.4 1.2-.4h5.2c.5 0 .9.2 1.3.5s.5.7.5 1.3c-.1 1.8-.6 3.5-1.3 5.3-.7 1.8-1.9 3.3-3.4 4.8-1.5 1.4-3.5 2.6-5.8 3.5-2.4.9-5.2 1.3-8.5 1.3-3 0-5.6-.4-7.8-1.3-2.3-.9-4.2-2.1-5.8-3.7-1.6-1.6-2.8-3.4-3.7-5.6-.9-2.2-1.4-4.6-1.6-7.1-.1-1.6-.1-3.4-.1-5.4s0-3.8.1-5.4c.2-2.6.7-4.9 1.6-7.1.9-2.2 2.1-4.1 3.7-5.6 1.6-1.6 3.5-2.8 5.8-3.7 2.3-.9 4.9-1.3 7.8-1.3 3.3 0 6.2.5 8.5 1.3 2.4.9 4.3 2.1 5.8 3.5s2.7 3 3.4 4.8c.7 1.8 1.2 3.5 1.3 5.2 0 .5-.1.9-.5 1.3-.4.3-.8.5-1.3.5h-5.2c-.4 0-.8-.1-1.2-.4-.4-.3-.6-.7-.7-1.3-.1-.9-.4-1.7-.9-2.5s-1.1-1.5-1.9-2.2c-.8-.6-1.8-1.2-3.1-1.6-1.2-.4-2.7-.6-4.4-.6-1.7 0-3.1.3-4.4.8-1.2.5-2.3 1.2-3.1 2.1-.8.9-1.5 1.9-1.9 3.1-.4 1.2-.7 2.5-.8 3.8-.1 1.6-.1 3.4-.1 5.4s0 3.8.1 5.4c.1 1.4.4 2.6.8 3.8.5 1.2 1.1 2.2 1.9 3 .8.9 1.9 1.5 3.1 2.1 1.2.5 2.7.8 4.4.8 1.7 0 3.1-.2 4.4-.6 1.2-.4 2.3-.9 3.1-1.6s1.5-1.4 2-2.2c.3-1 .6-1.8.8-2.7z"/></svg>